<svg xmlns="http://www.w3.org/2000/svg" viewBox="0 0 24 24" role="img" aria-label="Milk">
  <defs>
    <linearGradient id="milkJug" x1="7" y1="3" x2="18" y2="22" gradientUnits="userSpaceOnUse">
      <stop offset="0" stop-color="#FFFFFF"/>
      <stop offset="0.62" stop-color="#F4FAFF"/>
      <stop offset="1" stop-color="#DCEAF3"/>
    </linearGradient>
    <linearGradient id="milkBlue" x1="8" y1="11" x2="16" y2="20" gradientUnits="userSpaceOnUse">
      <stop offset="0" stop-color="#7EC8F3"/>
      <stop offset="1" stop-color="#4E9ED3"/>
    </linearGradient>
  </defs>
  <path d="M9 2.7h6v3.2l1.25 1.45c.7.82 1.08 1.85 1.08 2.92v9.1A2.35 2.35 0 0 1 14.98 21.7H9.02a2.35 2.35 0 0 1-2.35-2.35v-9.08c0-1.07.38-2.1 1.08-2.92L9 5.9V2.7Z" fill="url(#milkJug)" stroke="#AFC2CC" stroke-width="1.15" stroke-linejoin="round"/>
  <path d="M8.72 2.25h6.56c.45 0 .82.37.82.82v1.15H7.9V3.07c0-.45.37-.82.82-.82Z" fill="#D7E6EE" stroke="#AFC2CC" stroke-width="0.8"/>
  <path d="M8.05 11.1h7.9v7.75c0 .65-.53 1.18-1.18 1.18H9.23c-.65 0-1.18-.53-1.18-1.18V11.1Z" fill="url(#milkBlue)" opacity="0.95"/>
  <path d="M8.05 11.1c2.15-.95 3.5.9 5.3.15.95-.4 1.65-.4 2.6-.15v2.25c-1.8-.5-2.65.55-4.3.12-1.25-.33-2.2-1.35-3.6-.2V11.1Z" fill="#FFFFFF" opacity="0.94"/>
  <path d="M10.1 7.25h3.8" stroke="#D7E6EE" stroke-width="1" stroke-linecap="round"/>
  <path d="M9.15 13.2v4.9" stroke="#FFFFFF" stroke-width="1.1" stroke-linecap="round" opacity="0.45"/>
  <text x="12" y="17.55" text-anchor="middle" font-family="Arial, Helvetica, sans-serif" font-size="3.2" font-weight="700" fill="#FFFFFF">MILK</text>
</svg>
