<svg xmlns="http://www.w3.org/2000/svg" viewBox="0 0 24 24" role="img" aria-label="Water">
  <defs>
    <linearGradient id="glassEdge" x1="6" y1="3" x2="18" y2="22" gradientUnits="userSpaceOnUse">
      <stop offset="0" stop-color="#FFFFFF"/>
      <stop offset="1" stop-color="#B7D3E8"/>
    </linearGradient>
    <linearGradient id="waterFill" x1="7" y1="10" x2="17" y2="21" gradientUnits="userSpaceOnUse">
      <stop offset="0" stop-color="#8ED8FF"/>
      <stop offset="1" stop-color="#3E9ED8"/>
    </linearGradient>
  </defs>
  <path d="M6.75 3.2h10.5l-1.2 16.05A2.5 2.5 0 0 1 13.56 21.6H10.44a2.5 2.5 0 0 1-2.49-2.35L6.75 3.2Z" fill="#FFFFFF" opacity="0.56" stroke="url(#glassEdge)" stroke-width="1.2" stroke-linejoin="round"/>
  <path d="M8.05 10.15c1.75-.75 2.7.45 4.45.1 1.28-.25 2.05-.9 3.45-.15l-.64 8.55a1.65 1.65 0 0 1-1.64 1.52h-3.34a1.65 1.65 0 0 1-1.64-1.52l-.64-8.5Z" fill="url(#waterFill)"/>
  <path d="M8.05 10.15c1.75-.75 2.7.45 4.45.1 1.28-.25 2.05-.9 3.45-.15l-.16 2.05c-1.2-.65-2.2-.1-3.28.12-1.82.38-2.75-.85-4.3-.08l-.16-2.04Z" fill="#FFFFFF" opacity="0.45"/>
  <path d="M9.2 5.05l.95 12.5" stroke="#FFFFFF" stroke-width="1.2" stroke-linecap="round" opacity="0.66"/>
  <path d="M14.95 5.05l-.4 5.1" stroke="#E5F7FF" stroke-width="1" stroke-linecap="round" opacity="0.9"/>
  <path d="M7.15 3.2h9.7" stroke="#EAF7FF" stroke-width="1.15" stroke-linecap="round"/>
</svg>
